<svg width="51" height="50" viewBox="0 0 51 50" fill="none" xmlns="http://www.w3.org/2000/svg">
<circle cx="25.9229" cy="25" r="25" fill="#EEF3FA"/>
<g clip-path="url(#clip0_1536_2767)">
<path d="M36.9113 26.936C36.9059 26.2332 36.3689 25.7504 35.6289 25.72C35.5128 25.7155 35.3968 25.7194 35.2583 25.7194V25.3978C35.2583 22.1149 35.259 18.8314 35.2569 15.5479C35.2569 15.3797 35.2583 15.2056 35.2189 15.0425C35.0573 14.3786 34.5142 14.0007 33.7356 14.0007C29.0697 14 24.4039 14 19.738 14C18.8467 14 17.956 14.0013 17.0653 14C16.6675 13.9994 16.3138 14.1042 16.0226 14.3721C15.6961 14.673 15.584 15.0438 15.5847 15.4696C15.5895 18.7848 15.5874 22.1007 15.5874 25.4165V25.7207C15.432 25.7207 15.3145 25.7161 15.1978 25.7213C14.4721 25.7563 13.9398 26.239 13.9344 26.9301C13.9188 28.7492 13.9195 30.5689 13.9337 32.3886C13.9398 33.0985 14.4985 33.5942 15.2412 33.6052C15.3485 33.6071 15.4557 33.6052 15.5874 33.6052V33.8977C15.5874 34.4879 15.582 35.0781 15.5895 35.6682C15.599 36.4383 16.1862 36.9974 16.9954 36.9981C22.611 37.0007 28.2273 37.0007 33.8435 36.9981C34.6643 36.9974 35.2481 36.4377 35.2569 35.6508C35.2637 35.0606 35.2583 34.4698 35.2583 33.8796V33.6059C35.3968 33.6059 35.4972 33.6065 35.5977 33.6052C36.3445 33.5949 36.9038 33.1069 36.9106 32.3944C36.9276 30.5754 36.9269 28.7557 36.9113 26.936ZM16.4021 15.5447C16.4021 14.9493 16.582 14.7765 17.2004 14.7765H33.6439C34.2637 14.7765 34.4436 14.9493 34.4436 15.5434C34.4443 18.8353 34.4436 22.1272 34.4436 25.4191V25.7006H16.4021V15.5447ZM34.4335 35.7452C34.4287 35.9976 34.2067 36.1872 33.9358 36.217C33.8435 36.2273 33.7498 36.2228 33.6561 36.2228H17.1882C16.5684 36.2228 16.4021 36.0656 16.4021 35.4773C16.4014 34.8645 16.4021 34.251 16.4021 33.622H34.4375C34.4375 34.3403 34.4464 35.0431 34.4335 35.7452ZM36.1014 32.3084C36.1007 32.6837 35.9161 32.8287 35.4748 32.8287C29.604 32.8293 23.7332 32.8293 17.8623 32.8293C17.0137 32.8293 16.1651 32.8306 15.3166 32.8287C14.9147 32.828 14.7436 32.6682 14.7429 32.2818C14.7409 30.5346 14.7409 28.788 14.7436 27.0408C14.7443 26.6409 14.9154 26.4953 15.3716 26.4953C18.7306 26.4946 22.0903 26.4946 25.4493 26.4946H34.3832C34.7729 26.4946 35.1632 26.4907 35.5529 26.4966C35.9276 26.5024 36.1007 26.6629 36.1014 27.0194C36.1055 28.7822 36.1055 30.5456 36.1014 32.3084Z" fill="#E65425"/>
<path d="M32.6073 16.0415C27.8138 16.0409 23.021 16.0409 18.2275 16.0415C17.7937 16.0415 17.6688 16.1606 17.6681 16.5767C17.6674 17.6198 17.6674 18.663 17.6681 19.7062C17.6681 20.1773 17.7706 20.2756 18.2628 20.2756C20.647 20.2763 23.0305 20.2763 25.4147 20.2763C27.8151 20.2763 30.2163 20.2763 32.6174 20.2756C33.0587 20.2756 33.1761 20.1637 33.1768 19.745C33.1775 18.6941 33.1775 17.6425 33.1768 16.5916C33.1761 16.1573 33.056 16.0415 32.6073 16.0415ZM32.3452 19.4842H18.497V16.8375H32.3452V19.4842Z" fill="#E65425"/>
<path d="M33.1687 21.9567C33.149 22.1502 33.0255 22.2628 32.8273 22.2919C32.7356 22.3055 32.6406 22.2997 32.5476 22.2997H18.2954C18.2018 22.2997 18.1074 22.3061 18.0158 22.2919C17.8175 22.2615 17.6953 22.1489 17.6756 21.9547C17.6553 21.7509 17.7517 21.6066 17.9574 21.549C18.0524 21.5225 18.1583 21.5244 18.2588 21.5244C23.0353 21.5231 27.8111 21.5231 32.5876 21.5244C32.6888 21.5244 32.794 21.5225 32.889 21.5496C33.0947 21.6079 33.1905 21.7535 33.1687 21.9567Z" fill="#E65425"/>
<path d="M33.1707 24.0583C33.1748 24.2627 33.0641 24.3961 32.853 24.4375C32.7627 24.4549 32.6677 24.4556 32.5747 24.4556C27.8077 24.4562 23.04 24.4562 18.273 24.4562C18.1881 24.4562 18.1026 24.4562 18.0191 24.4433C17.7958 24.4077 17.6715 24.2776 17.6742 24.0608C17.677 23.8447 17.8032 23.7166 18.0286 23.6881C18.1209 23.6765 18.2153 23.6803 18.3083 23.6803C20.6837 23.6797 23.0583 23.6797 25.4337 23.6797C27.8002 23.6797 30.1667 23.6797 32.5339 23.6803C32.6351 23.6803 32.7383 23.6765 32.8381 23.692C33.0512 23.725 33.1673 23.8544 33.1707 24.0583Z" fill="#E65425"/>
<path d="M30.0371 29.8002C29.997 29.729 29.9943 29.6015 30.0343 29.5303C30.4675 28.7693 29.957 27.9035 29.0493 27.8808C28.6678 27.8711 28.2863 27.8756 27.9054 27.8795C27.5653 27.8834 27.4173 28.0297 27.4153 28.3629C27.4119 28.7991 27.4146 29.2352 27.4146 29.6714C27.4146 30.116 27.4099 30.5599 27.416 31.0045C27.42 31.284 27.5633 31.4342 27.8477 31.4406C28.2713 31.4503 28.6963 31.4626 29.1186 31.4348C29.9943 31.3772 30.4539 30.5372 30.0371 29.8002ZM28.236 28.6697C28.5388 28.6697 28.8416 28.6457 29.1355 28.6839C29.2292 28.6962 29.3501 28.8664 29.3677 28.9777C29.3928 29.133 29.2659 29.2553 29.0914 29.2637C28.8151 29.2773 28.5374 29.2676 28.236 29.2676V28.6697ZM29.1104 30.6537C28.8266 30.6706 28.5408 30.6583 28.2374 30.6583V30.0616C28.5361 30.0616 28.8314 30.0377 29.1179 30.0752C29.217 30.0881 29.3433 30.2454 29.3677 30.3541C29.4016 30.5075 29.2856 30.6434 29.1104 30.6537Z" fill="#E65425"/>
<path d="M26.8105 29.6623C26.8105 29.5252 26.8187 29.3873 26.8092 29.2501C26.7589 28.5008 26.1405 27.9209 25.3571 27.8828C24.5967 27.8452 23.8941 28.3687 23.7923 29.0968C23.7414 29.4611 23.7407 29.8416 23.7882 30.2066C23.8798 30.9119 24.4854 31.4057 25.2315 31.4393C25.9477 31.4717 26.5987 31.0148 26.7677 30.3366C26.8214 30.1199 26.8146 29.8888 26.8356 29.6636C26.8275 29.663 26.8193 29.663 26.8105 29.6623ZM25.9911 30.0577C25.9558 30.3942 25.6904 30.635 25.3421 30.6596C24.985 30.6848 24.6497 30.4738 24.6035 30.1341C24.5614 29.8267 24.5614 29.5057 24.6015 29.1977C24.6463 28.8606 24.9918 28.6347 25.3347 28.6599C25.6883 28.6865 25.9606 28.9408 25.9932 29.2851C26.0054 29.4126 25.9952 29.5426 25.9952 29.6714H25.9932C25.9932 29.8002 26.0047 29.9302 25.9911 30.0577Z" fill="#E65425"/>
<path d="M23.0604 30.3055C23.0387 30.9572 22.5363 31.4263 21.8819 31.4431C21.258 31.4593 20.7258 31.0083 20.6538 30.4032C20.6239 30.147 20.7631 29.9476 20.9946 29.9153C21.2349 29.8816 21.4073 30.0188 21.4596 30.2854C21.5098 30.5417 21.651 30.6711 21.8717 30.6627C22.0991 30.6549 22.2464 30.4958 22.2498 30.2304C22.2559 29.7153 22.2512 29.2002 22.2512 28.6553C21.9525 28.6553 21.6986 28.6599 21.4447 28.654C21.1826 28.6489 21.0082 28.4974 21.0014 28.28C20.9939 28.0587 21.1792 27.8859 21.4487 27.8814C21.8472 27.8743 22.2457 27.873 22.6442 27.8781C22.8988 27.8807 23.0733 28.0483 23.0733 28.2936C23.0746 28.964 23.0821 29.6351 23.0604 30.3055Z" fill="#E65425"/>
<path d="M19.736 27.894C19.7306 28.1302 19.5561 28.268 19.2472 28.2687C18.2907 28.2706 17.3335 28.2706 16.377 28.2687C16.0566 28.268 15.8794 28.1205 15.8862 27.872C15.893 27.6351 16.0681 27.496 16.3743 27.4941C16.857 27.4908 17.3396 27.4928 17.8223 27.4928C18.2968 27.4928 18.7707 27.4908 19.2445 27.4941C19.5609 27.496 19.7421 27.6468 19.736 27.894Z" fill="#E65425"/>
<path d="M34.9589 27.8885C34.9555 28.1325 34.7783 28.2671 34.4498 28.2684C33.9759 28.271 33.5021 28.2691 33.0275 28.2691C32.5537 28.2691 32.0792 28.271 31.6053 28.2684C31.2822 28.2671 31.1057 28.1241 31.1091 27.8769C31.1125 27.6329 31.293 27.4938 31.6175 27.4932C32.5578 27.4919 33.4973 27.4919 34.4369 27.4932C34.7783 27.4938 34.9616 27.6355 34.9589 27.8885Z" fill="#E65425"/>
<path d="M19.736 29.6571C19.7381 29.8895 19.569 30.0506 19.29 30.0519C18.3077 30.0571 17.3254 30.0571 16.343 30.0525C16.0505 30.0512 15.876 29.8849 15.8862 29.6442C15.8963 29.4151 16.0661 29.2805 16.3573 29.2786C16.84 29.2766 17.3226 29.2779 17.8053 29.2779C18.2961 29.2779 18.787 29.276 19.2785 29.2792C19.5643 29.2812 19.734 29.4255 19.736 29.6571Z" fill="#E65425"/>
<path d="M34.9582 29.6615C34.9582 29.9003 34.783 30.0517 34.483 30.053C33.5176 30.0563 32.5523 30.0563 31.5869 30.053C31.2862 30.0524 31.1097 29.9009 31.109 29.6635C31.1083 29.4234 31.2814 29.2804 31.5849 29.2784C32.0676 29.2765 32.5502 29.2778 33.0329 29.2778C33.5156 29.2778 33.9983 29.2765 34.4803 29.2784C34.7864 29.2797 34.9589 29.4208 34.9582 29.6615Z" fill="#E65425"/>
<path d="M19.7367 31.4429C19.736 31.6798 19.565 31.8299 19.2581 31.8319C18.2934 31.8364 17.3281 31.8364 16.3634 31.8312C16.0566 31.8299 15.8855 31.6798 15.8855 31.4429C15.8848 31.2042 16.0566 31.0611 16.3634 31.0586C16.8461 31.0547 17.3288 31.0579 17.8108 31.0579C18.2934 31.0579 18.7761 31.0547 19.2581 31.0586C19.5656 31.0611 19.7367 31.2042 19.7367 31.4429Z" fill="#E65425"/>
<path d="M34.9589 31.434C34.9637 31.6514 34.8177 31.8178 34.5665 31.8242C34.0513 31.8378 33.5346 31.8281 33.018 31.8281V31.8339C32.587 31.8339 32.1552 31.8346 31.7234 31.8339C31.6386 31.8333 31.553 31.8339 31.4702 31.8223C31.2367 31.7893 31.1016 31.6385 31.1091 31.4282C31.1165 31.2205 31.2632 31.0651 31.5008 31.0639C32.5245 31.0567 33.5489 31.0567 34.5726 31.0645C34.8082 31.0658 34.9542 31.2256 34.9589 31.434Z" fill="#E65425"/>
</g>
<defs>
<clipPath id="clip0_1536_2767">
<rect width="23" height="23" fill="white" transform="translate(13.9229 14)"/>
</clipPath>
</defs>
</svg>
