<svg width="51" height="50" viewBox="0 0 51 50" fill="none" xmlns="http://www.w3.org/2000/svg">
<circle cx="25.9229" cy="25" r="25" fill="#EEF3FA"/>
<g clip-path="url(#clip0_1536_2775)">
<path d="M36.4758 34.3887C35.9232 33.813 35.352 33.2551 34.7822 32.6966C34.664 32.5805 34.6205 32.4636 34.6205 32.2996C34.6257 29.4516 34.6244 26.6029 34.6244 23.7549C34.6244 23.3285 34.51 23.2123 34.089 23.2123H28.8894V23.9872H33.8443V31.7769C33.6169 31.5413 33.438 31.3415 33.2425 31.1584C33.1282 31.0511 33.0873 30.9381 33.0879 30.783C33.093 28.948 33.0911 27.1123 33.0911 25.2772C33.0911 24.8655 32.9729 24.7449 32.5705 24.7442C31.165 24.7436 29.7595 24.7442 28.3547 24.7449C28.2774 24.7449 28.2007 24.7519 28.126 24.7551V25.5178H32.3066V30.1786C32.2875 30.1913 32.2689 30.2041 32.2498 30.2169C32.198 30.1467 32.1546 30.0682 32.0932 30.0075C31.2991 29.2103 30.4987 28.4188 29.7084 27.6178C29.502 27.4078 29.2989 27.2865 29.0727 27.4416C28.4166 26.7893 27.7791 26.1561 27.1332 25.5134C27.7874 24.6095 28.2013 23.5762 28.3987 22.4368H31.5387V21.6651H28.4978V20.9107H30.0074V20.1473H28.4039C27.9765 17.8897 26.8189 16.1312 24.8231 14.9918C22.8209 13.8487 20.7044 13.6936 18.5534 14.5272C14.6947 16.022 12.8752 20.4307 14.5427 24.2144C15.3712 26.0961 16.7633 27.4193 18.6958 28.1176C21.1018 28.9875 23.3703 28.6244 25.4492 27.2208C26.0963 27.8693 26.7313 28.5063 27.3728 29.1497C27.2463 29.4177 27.2629 29.5109 27.5069 29.7554C28.8274 31.076 30.1492 32.396 31.4697 33.7166C31.5285 33.7753 31.5834 33.8385 31.6588 33.9202H18.515V28.5867H17.7535V33.917H16.9837V27.8239H16.2133V33.9355C15.9558 33.9355 15.7245 33.9311 15.4933 33.9368C15.225 33.9438 15.0838 34.0862 15.0767 34.3555C15.071 34.5789 15.0742 34.8023 15.0755 35.0257C15.0825 36.1727 15.9079 36.998 17.061 36.9987C22.635 37.0006 28.2084 37.0012 33.7817 36.9936C34.0322 36.9936 34.2807 36.908 34.5317 36.8736C34.6269 36.8608 34.7343 36.8557 34.8218 36.887C35.1642 37.0082 35.5047 37.0331 35.8542 36.9221C36.9492 36.5742 37.2852 35.2313 36.4758 34.3887ZM16.4611 25.7291C14.0788 23.2079 14.1306 19.1892 16.5889 16.7063C19.0485 14.2214 23.0547 14.1308 25.6338 16.5193C28.2339 18.9288 28.2505 22.68 26.5474 24.9893C26.3742 24.8144 26.2017 24.6408 26.0299 24.4678C27.9388 21.4985 26.6841 18.0403 24.443 16.541C22.1514 15.0084 19.0728 15.2893 17.13 17.252C15.1713 19.2307 14.9189 22.3028 16.4886 24.5827C18.0295 26.8212 21.4614 27.9822 24.3855 26.1095C24.5567 26.2818 24.7292 26.4555 24.9023 26.6291C22.6574 28.2905 18.9073 28.318 16.4611 25.7291ZM21.2423 26.2748C18.469 26.2793 16.2292 24.0632 16.2254 21.3128C16.2222 18.5516 18.4524 16.3169 21.2104 16.3188C23.9594 16.3208 26.1896 18.5477 26.1915 21.293C26.1928 24.0287 23.9651 26.271 21.2423 26.2748ZM25.5367 26.1459C25.3712 25.9608 25.209 25.7789 25.048 25.5989C25.1923 25.4616 25.3687 25.2925 25.5354 25.1323C25.6881 25.2817 25.8606 25.4495 26.0535 25.6378C25.8925 25.7955 25.7207 25.9653 25.5367 26.1459ZM26.1168 26.7031C26.2854 26.5531 26.4675 26.3916 26.6381 26.2397C27.2124 26.8193 27.8263 27.4384 28.4447 28.062C28.2978 28.2088 28.1247 28.3824 27.9567 28.551C27.3402 27.9318 26.7288 27.3178 26.1168 26.7031ZM17.1409 36.2334C16.2222 36.2334 15.7277 35.6474 15.8696 34.7015H16.1225C21.4876 34.7015 26.8521 34.7021 32.2165 34.6976C32.3922 34.6976 32.5123 34.7481 32.6324 34.8725C33.0087 35.2632 33.3971 35.6423 33.7804 36.0266C33.8341 36.0802 33.882 36.1383 33.9683 36.2334H17.1409ZM36.1506 35.5632C36.079 36.1421 35.3987 36.4223 34.9227 36.0693C34.8716 36.031 34.8269 35.9851 34.7815 35.9404C32.6363 33.797 30.491 31.6537 28.3464 29.5103C28.3125 29.4771 28.2812 29.4414 28.2505 29.4082C28.6147 29.045 28.9629 28.6971 29.3219 28.339C29.3596 28.3735 29.4132 28.4188 29.4631 28.468C31.5924 30.5928 33.7204 32.7196 35.8516 34.8425C36.0554 35.0455 36.1864 35.2689 36.1506 35.5632Z" fill="#E65425"/>
<path d="M34.2338 15.9883H31.573V16.7159H34.2338V15.9883Z" fill="#E65425"/>
<path d="M30.3931 14.0742H28.115V14.8019H30.3931V14.0742Z" fill="#E65425"/>
<path d="M33.7649 18.627H31.4957V19.3699H33.7649V18.627Z" fill="#E65425"/>
<path d="M35.7632 15.9824H35.026V16.7209H35.7632V15.9824Z" fill="#E65425"/>
<path d="M30.3912 17.5137H29.6584V18.2541H30.3912V17.5137Z" fill="#E65425"/>
<path d="M33.4615 21.6953H32.7249V22.4357H33.4615V21.6953Z" fill="#E65425"/>
<path d="M24.2741 20.8445C24.2748 21.8498 24.2754 22.8544 24.2741 23.8591C24.2741 24.2344 24.1464 24.3614 23.7714 24.3614C22.0631 24.3627 20.3548 24.3627 18.6465 24.3614C18.2695 24.3614 18.1424 24.2351 18.1424 23.861C18.1411 22.1542 18.1411 20.4475 18.1418 18.7407C18.1424 18.3628 18.2676 18.2352 18.6414 18.2352C19.9823 18.2339 21.3233 18.2345 22.6642 18.2345H22.875V18.9915H18.9276V23.5795H23.5056V20.6396H24.2607C24.2652 20.7079 24.2741 20.7762 24.2741 20.8445Z" fill="#E65425"/>
<path d="M24.6926 19.1157C24.6696 19.1399 24.6178 19.1986 24.5629 19.2535C23.4468 20.3692 22.3307 21.4843 21.214 22.5994C20.9023 22.9109 20.7483 22.9103 20.4353 22.5981C20.0973 22.2611 19.7593 21.9241 19.4131 21.5788C19.6015 21.3975 19.7766 21.2297 19.9606 21.0529C20.2295 21.3299 20.5055 21.6145 20.7796 21.8973C21.9206 20.7567 23.0335 19.6442 24.1598 18.5176C24.3565 18.7384 24.5182 18.9197 24.6926 19.1157Z" fill="#E65425"/>
</g>
<defs>
<clipPath id="clip0_1536_2775">
<rect width="23" height="23" fill="white" transform="translate(13.9229 14)"/>
</clipPath>
</defs>
</svg>
