<svg width="51" height="50" viewBox="0 0 51 50" fill="none" xmlns="http://www.w3.org/2000/svg">
<circle cx="25.9229" cy="25" r="25" fill="#EEF3FA"/>
<g clip-path="url(#clip0_1536_2769)">
<path d="M36.7654 35.8489C36.4786 34.9993 36.1974 34.1476 35.8969 33.303C35.505 32.2016 35.0952 31.1072 34.7005 30.0073C34.671 29.9257 34.6954 29.8237 34.7041 29.7316C34.7321 29.4376 34.827 29.1344 34.7824 28.8517C34.6732 28.1611 34.1023 27.7496 33.3272 27.7553C33.0648 27.7574 32.857 27.7032 32.6434 27.5337C31.6764 26.7685 30.5749 26.2706 29.3461 26.0722C28.8263 25.9886 28.2964 25.9618 27.7614 25.9084C27.7097 25.7452 27.7305 25.6214 27.9218 25.5124C29.2275 24.769 30.0975 23.7274 30.2564 22.204C30.2657 22.1168 30.3621 22.005 30.4476 21.9649C31.089 21.6646 31.4139 21.1723 31.4175 20.4809C31.4219 19.5934 31.4319 18.7051 31.4118 17.8182C31.4032 17.4166 31.3658 17.008 31.2766 16.617C30.554 13.4577 27.5522 11.5257 24.2829 12.101C21.7866 12.5399 19.7159 14.6934 19.5117 17.1634C19.4153 18.3253 19.4448 19.4991 19.4664 20.6666C19.4772 21.2419 19.8122 21.6801 20.355 21.9199C20.5499 22.0064 20.6067 22.1189 20.6383 22.3081C20.7447 22.9425 20.8936 23.5671 21.302 24.0952C21.747 24.6698 22.2812 25.1488 22.9262 25.4983C23.1232 25.6045 23.1735 25.729 23.088 25.959C22.9039 25.959 22.7069 25.952 22.5113 25.9604C21.0065 26.0237 19.6418 26.4928 18.4411 27.3762C18.1031 27.6244 17.7861 27.7665 17.3525 27.7679C16.5472 27.7707 15.8894 28.5296 16.0799 29.292C16.205 29.7892 16.0669 30.1711 15.9088 30.6121C15.2566 32.4337 14.6239 34.2623 14.0257 36.1014C13.672 37.1894 14.2615 38.345 15.3357 38.8C15.5313 38.8823 15.7405 38.9336 15.944 38.9998H34.9255C34.9492 38.9878 34.9715 38.9702 34.9974 38.9646C36.5469 38.5946 37.2659 37.3301 36.7654 35.8489ZM27.8297 26.8536C29.0463 26.8255 30.1859 27.0963 31.2371 27.7384H27.3243C27.4415 27.4613 27.5515 27.1898 27.6752 26.9232C27.6931 26.8846 27.7758 26.855 27.8297 26.8536ZM22.9362 13.5534C26.0696 11.7585 30.0759 13.7679 30.4519 17.3013C30.5145 17.8907 30.4606 18.492 30.4606 19.0884C30.4462 19.1067 30.4318 19.1243 30.4181 19.1425C30.3563 19.0659 30.2671 18.9991 30.2384 18.9119C29.9587 18.0813 29.3878 17.5918 28.4998 17.4645C27.5882 17.3336 26.7512 17.0207 25.9941 16.5023C25.6217 16.247 25.2442 16.2491 24.8703 16.5101C24.1097 17.0411 23.2598 17.3435 22.3373 17.4729C21.4702 17.5939 20.9166 18.0869 20.6355 18.8908C20.6031 18.9843 20.5168 19.0596 20.4313 19.125C20.2199 16.9785 20.5521 14.9185 22.9362 13.5534ZM22.4667 24.0509C21.7787 23.4784 21.6169 22.6893 21.5062 21.8833C21.4264 21.3017 21.4465 21.2989 20.8713 21.1575C20.583 21.0872 20.3716 20.827 20.3723 20.5428C20.373 20.2566 20.5722 19.9689 20.8749 19.9436C21.335 19.9049 21.4623 19.6644 21.5098 19.2551C21.563 18.7958 21.8764 18.4625 22.3395 18.3921C23.4582 18.2233 24.4958 17.8745 25.4153 17.2099C26.1991 17.7535 27.0482 18.1157 27.9786 18.2894C28.1461 18.3211 28.3151 18.3422 28.4826 18.3738C28.9729 18.4674 29.3274 18.8479 29.3799 19.3331C29.4288 19.7812 29.4762 19.8311 29.9429 19.9218C30.2815 19.9879 30.5116 20.2573 30.4958 20.5703C30.4814 20.8769 30.2441 21.1224 29.9177 21.1688C29.5201 21.2265 29.418 21.339 29.3756 21.7258C29.3468 21.9874 29.3051 22.2477 29.2562 22.5065C29.1146 23.2682 28.717 23.8667 28.072 24.3224C27.4717 24.7465 26.8462 25.1143 26.1451 25.3591C25.6677 25.5251 25.2011 25.5272 24.7244 25.3584C23.8868 25.0616 23.1448 24.6143 22.4667 24.0509ZM26.2911 27.4528C25.8467 27.7968 25.2363 27.8411 24.7496 27.5654C24.2276 27.2707 23.9723 26.7151 24.0852 26.08C24.9775 26.4795 25.8734 26.4851 26.7635 26.0863C26.9173 26.547 26.7117 27.1286 26.2911 27.4528ZM21.1042 27.0906C21.7154 26.9711 22.3416 26.9275 22.9614 26.8501C23.121 26.8297 23.1915 26.8909 23.2425 27.0491C23.3166 27.2784 23.4417 27.4929 23.556 27.737H19.5469C20.0797 27.4191 20.5751 27.194 21.1042 27.0906ZM17.5991 28.652C22.827 28.6513 28.0548 28.6513 33.2826 28.652C33.8017 28.652 33.9786 28.8763 33.8456 29.3729C33.2474 31.6045 32.6434 33.834 32.0517 36.067C31.9999 36.2611 31.9129 36.3075 31.7202 36.3068C29.628 36.3005 27.535 36.3033 25.442 36.3033C23.349 36.3033 21.256 36.2998 19.163 36.3082C18.9573 36.3089 18.8674 36.2561 18.8142 36.0557C18.2239 33.8311 17.6229 31.6094 17.0268 29.3862C16.8895 28.8742 17.0635 28.652 17.5991 28.652ZM17.1469 37.4883C17.1577 37.6796 17.1483 37.8731 17.1483 38.0925C16.7766 38.0925 16.443 38.122 16.1166 38.0869C15.1876 37.9877 14.6455 37.117 14.9468 36.2196C15.4285 34.7869 15.921 33.3585 16.4085 31.928C16.4638 31.7655 16.5199 31.6031 16.6292 31.4469C17.0642 33.0589 17.4985 34.6716 17.9371 36.3005C17.2964 36.4664 17.1138 36.9095 17.1469 37.4883ZM32.7772 38.0855H18.0881V37.2126H32.7772V38.0855ZM35.5597 37.7092C35.3411 37.8942 35.0362 38.0222 34.7508 38.0784C34.433 38.141 34.0929 38.0925 33.7212 38.0925C33.7212 37.8934 33.7119 37.7036 33.7226 37.5151C33.7572 36.9299 33.5903 36.47 32.9339 36.3005C33.3718 34.6709 33.8053 33.0589 34.2554 31.3857C34.3072 31.506 34.3374 31.5665 34.359 31.6291C34.8817 33.1588 35.4044 34.6885 35.9228 36.2196C36.1147 36.7864 36.027 37.3153 35.5597 37.7092Z" fill="#E65425"/>
<path d="M27.2941 32.0892C26.3738 31.1053 24.5058 31.1025 23.5819 32.0843C22.983 32.7208 22.9844 33.5971 23.5963 34.2224C24.0981 34.7351 24.7323 34.9369 25.4613 34.9468C26.1545 34.9306 26.7886 34.728 27.2862 34.2097C27.8808 33.5894 27.8801 32.7166 27.2941 32.0892ZM26.5513 33.6639C26.2357 33.9446 25.8496 34.0395 25.4333 34.0465C25.017 34.0395 24.6309 33.9439 24.316 33.6625C23.9658 33.3489 23.9701 32.9466 24.3167 32.6294C24.8703 32.1223 25.9992 32.123 26.5542 32.6308C26.8993 32.9466 26.9015 33.3517 26.5513 33.6639Z" fill="#E65425"/>
</g>
<defs>
<clipPath id="clip0_1536_2769">
<rect width="23" height="27" fill="white" transform="translate(13.9229 12)"/>
</clipPath>
</defs>
</svg>
