<svg width="32" height="36" viewBox="0 0 32 36" fill="none" xmlns="http://www.w3.org/2000/svg">
<path d="M16.4202 35.5503C15.939 35.5503 15.4892 35.4208 15.0692 35.1968L10.801 32.6628C10.1622 32.3075 10.4825 32.178 10.675 32.1133C11.543 31.8245 11.704 31.7615 12.6017 31.2505C12.6997 31.1858 12.8275 31.2155 12.9255 31.2803L16.198 33.2403C16.3275 33.3033 16.4885 33.3033 16.5847 33.2403L29.393 25.8255C29.5225 25.7625 29.5855 25.633 29.5855 25.472V10.6705C29.5855 10.5113 29.5225 10.3818 29.393 10.3188L16.5847 2.93554C16.457 2.87079 16.296 2.87079 16.198 2.93554L3.3862 10.317C3.25845 10.38 3.1937 10.5428 3.1937 10.6688V25.4685C3.1937 25.5963 3.25845 25.759 3.3862 25.822L6.8862 27.8468C8.7797 28.8058 9.9697 27.6805 9.9697 26.5605V11.955C9.9697 11.7625 10.129 11.5683 10.3547 11.5683H11.9927C12.1817 11.5683 12.3777 11.7293 12.3777 11.955V26.5623C12.3777 29.098 10.9987 30.5768 8.5907 30.5768C7.8522 30.5768 7.2747 30.5768 5.6367 29.7718L2.26795 27.8485C1.8575 27.6099 1.51687 27.2678 1.2801 26.8563C1.04333 26.4447 0.918708 25.9783 0.918701 25.5035V10.702C0.918701 9.73954 1.43145 8.84004 2.26795 8.35879L15.071 0.944037C15.4866 0.721762 15.9506 0.605469 16.422 0.605469C16.8933 0.605469 17.3573 0.721762 17.773 0.944037L30.5777 8.35879C31.416 8.83829 31.927 9.73954 31.927 10.702V25.5035C31.927 26.4643 31.4142 27.3638 30.5777 27.8485L17.773 35.2615C17.3512 35.454 16.87 35.5503 16.4202 35.5503ZM20.3682 25.3723C14.7507 25.3723 13.5957 22.8033 13.5957 20.6228C13.5957 20.4303 13.7567 20.236 13.9807 20.236H15.6502C15.8427 20.236 16.002 20.3638 16.002 20.558C16.2592 22.2573 16.996 23.0938 20.4015 23.0938C23.0965 23.0938 24.2549 22.4813 24.2549 21.0375C24.2549 20.2028 23.9312 19.5938 19.7277 19.1773C16.2295 18.8273 14.0472 18.052 14.0472 15.2608C14.0472 12.662 16.2295 11.1203 19.8904 11.1203C23.9977 11.1203 26.0207 12.536 26.2762 15.6143C26.2731 15.7182 26.239 15.8188 26.1782 15.903C26.1135 15.966 26.019 16.0308 25.9227 16.0308H24.2549C24.1725 16.029 24.093 15.9999 24.029 15.9479C23.965 15.8959 23.9201 15.8241 23.9015 15.7438C23.5147 13.9728 22.5207 13.3988 19.8904 13.3988C16.9347 13.3988 16.5812 14.426 16.5812 15.196C16.5812 16.1253 16.996 16.414 20.9807 16.9285C24.9287 17.4413 26.7907 18.1798 26.7907 20.943C26.7557 23.7693 24.4475 25.3723 20.3682 25.3723Z" fill="white"/>
</svg>
