<svg width="31" height="34" viewBox="0 0 31 34" fill="none" xmlns="http://www.w3.org/2000/svg">
<path d="M1.25618 12.0789C1.03517 12.0789 0.82321 12.1667 0.666929 12.323C0.510649 12.4792 0.422852 12.6912 0.422852 12.9122V21.2456C0.422852 21.4666 0.510649 21.6785 0.666929 21.8348C0.82321 21.9911 1.03517 22.0789 1.25618 22.0789C1.4772 22.0789 1.68916 21.9911 1.84544 21.8348C2.00172 21.6785 2.08952 21.4666 2.08952 21.2456V12.9122C2.08952 12.6912 2.00172 12.4792 1.84544 12.323C1.68916 12.1667 1.4772 12.0789 1.25618 12.0789ZM21.8295 4.40889L23.6179 1.70555C23.7399 1.52123 23.7836 1.29599 23.7396 1.07938C23.6955 0.86278 23.5672 0.672554 23.3828 0.550554C23.1985 0.428555 22.9733 0.384775 22.7567 0.428846C22.5401 0.472917 22.3499 0.601229 22.2279 0.785554L20.4612 3.45555C18.935 2.5545 17.1952 2.07921 15.4229 2.07921C13.6505 2.07921 11.9107 2.5545 10.3845 3.45555L8.61785 0.785554C8.49585 0.601229 8.30563 0.472917 8.08902 0.428846C7.87242 0.384775 7.64718 0.428555 7.46285 0.550554C7.27853 0.672554 7.15021 0.86278 7.10614 1.07938C7.06207 1.29599 7.10585 1.52123 7.22785 1.70555L9.01618 4.40889C7.89141 5.34561 6.98646 6.51828 6.36548 7.84378C5.74449 9.16927 5.42268 10.6151 5.42285 12.0789V26.2456C5.42285 26.4666 5.51065 26.6785 5.66693 26.8348C5.82321 26.9911 6.03517 27.0789 6.25618 27.0789H11.2562V32.9122C11.2562 33.1332 11.344 33.3452 11.5003 33.5015C11.6565 33.6578 11.8685 33.7456 12.0895 33.7456C12.3105 33.7456 12.5225 33.6578 12.6788 33.5015C12.8351 33.3452 12.9229 33.1332 12.9229 32.9122V27.0789H17.9229V32.9122C17.9229 33.1332 18.0106 33.3452 18.1669 33.5015C18.3232 33.6578 18.5352 33.7456 18.7562 33.7456C18.9772 33.7456 19.1892 33.6578 19.3454 33.5015C19.5017 33.3452 19.5895 33.1332 19.5895 32.9122V27.0789H24.5895C24.8105 27.0789 25.0225 26.9911 25.1788 26.8348C25.3351 26.6785 25.4229 26.4666 25.4229 26.2456V12.0789C25.4228 10.6152 25.1009 9.16938 24.4799 7.84392C23.8589 6.51846 22.9541 5.34576 21.8295 4.40889ZM23.7562 25.4122H7.08952V13.7456H23.7562V25.4122ZM7.08952 12.0789C7.08952 9.86875 7.96749 7.74913 9.53029 6.18633C11.0931 4.62353 13.2127 3.74555 15.4229 3.74555C17.633 3.74555 19.7526 4.62353 21.3154 6.18633C22.8782 7.74913 23.7562 9.86875 23.7562 12.0789H7.08952ZM29.5895 12.0789C29.3685 12.0789 29.1565 12.1667 29.0003 12.323C28.844 12.4792 28.7562 12.6912 28.7562 12.9122V21.2456C28.7562 21.4666 28.844 21.6785 29.0003 21.8348C29.1565 21.9911 29.3685 22.0789 29.5895 22.0789C29.8105 22.0789 30.0225 21.9911 30.1788 21.8348C30.3351 21.6785 30.4229 21.4666 30.4229 21.2456V12.9122C30.4229 12.6912 30.3351 12.4792 30.1788 12.323C30.0225 12.1667 29.8105 12.0789 29.5895 12.0789Z" fill="white"/>
</svg>
