<svg width="37" height="39" viewBox="0 0 37 39" fill="none" xmlns="http://www.w3.org/2000/svg">
<path d="M36.0535 7.33283L18.8354 0.158626C18.7067 0.0966417 18.5657 0.0644531 18.4228 0.0644531C18.28 0.0644531 18.139 0.0966417 18.0103 0.158626L0.792244 7.33283C0.574125 7.42233 0.392141 7.5821 0.275168 7.78681C0.158196 7.99151 0.112934 8.22941 0.146565 8.46277L3.01625 29.9854C3.03443 30.1602 3.09661 30.3275 3.19697 30.4718C3.29733 30.6161 3.43261 30.7326 3.59018 30.8104L17.9386 37.9846C18.0903 38.0552 18.2555 38.0918 18.4228 38.0918C18.5901 38.0918 18.7554 38.0552 18.9071 37.9846L33.2555 30.8104C33.4131 30.7326 33.5484 30.6161 33.6487 30.4718C33.7491 30.3275 33.8113 30.1602 33.8294 29.9854L36.6991 8.46277C36.7328 8.22941 36.6875 7.99151 36.5705 7.78681C36.4536 7.5821 36.2716 7.42233 36.0535 7.33283ZM31.7848 29.1424L18.4228 35.8144L5.06089 29.1424L2.3885 9.00083L18.4228 2.31089L34.4572 9.00083L31.7848 29.1424ZM17.4543 10.7047L10.9975 23.6183C10.8691 23.8751 10.848 24.1725 10.9388 24.445C11.0296 24.7174 11.2249 24.9426 11.4818 25.071C11.7387 25.1995 12.036 25.2206 12.3085 25.1298C12.5809 25.039 12.8061 24.8437 12.9346 24.5868L14.5488 21.3584H22.2969L23.9111 24.5868C24.003 24.7646 24.1418 24.9138 24.3126 25.0181C24.4834 25.1225 24.6795 25.178 24.8796 25.1787C25.0468 25.1774 25.2119 25.1407 25.3639 25.071C25.6154 24.9371 25.8058 24.7116 25.8959 24.4413C25.986 24.171 25.9689 23.8764 25.8481 23.6183L19.3914 10.7047C19.2986 10.5282 19.1593 10.3803 18.9886 10.2772C18.8179 10.174 18.6223 10.1195 18.4228 10.1195C18.2234 10.1195 18.0278 10.174 17.8571 10.2772C17.6864 10.3803 17.5471 10.5282 17.4543 10.7047ZM21.2208 19.2061H15.6249L18.4228 13.5923L21.2208 19.2061Z" fill="white"/>
</svg>
