<svg width="47" height="32" viewBox="0 0 47 32" fill="none" xmlns="http://www.w3.org/2000/svg">
<path d="M31.9992 3.42903C31.7714 3.42903 31.6196 3.45969 31.4663 3.49765V3.52101H31.4897C31.5962 3.7181 31.7714 3.87139 31.9072 4.05388C32.0138 4.25973 32.1043 4.47142 32.2036 4.67727L32.2342 4.64661C32.4167 4.51668 32.5087 4.31229 32.5087 3.99986C32.4328 3.90789 32.4167 3.81007 32.3496 3.7254C32.2736 3.59546 32.1057 3.52831 31.9992 3.42903ZM11.2945 29.1135H9.49291C9.43836 26.246 9.2635 23.382 8.9688 20.5292H8.9542L6.20954 29.1135H4.83282L2.11006 20.5292H2.0867C1.8751 23.3862 1.74852 26.249 1.70712 29.1135H0.0646973C0.15363 25.5136 0.420148 21.9202 0.863278 18.3466H3.09843L5.69856 26.255H5.71316L8.33665 18.3466H10.4652C10.9368 22.2709 11.2185 25.8594 11.3018 29.1135H11.2945ZM19.1109 21.1686C18.381 25.1528 17.4072 28.0507 16.2144 29.8523C15.2713 31.2436 14.245 31.9429 13.1267 31.9429C12.8303 31.9429 12.4653 31.8509 12.0244 31.6684V30.7107C12.2449 30.7414 12.496 30.7633 12.7778 30.7633C13.3019 30.7633 13.7209 30.6114 14.0406 30.3297C14.4202 29.9793 14.6114 29.5851 14.6114 29.1515C14.6114 28.8478 14.4669 28.2391 14.1632 27.312L12.1938 21.1686H13.9661L15.3808 25.7616C15.7005 26.8112 15.8378 27.5339 15.7764 27.9514C16.559 25.8827 17.0991 23.6169 17.4043 21.1686H19.1109ZM43.1078 29.1135H37.9834V18.3466H39.709V27.7909H43.1078V29.1135ZM36.6447 29.3734L34.6679 28.3996C34.8431 28.2551 35.0095 28.096 35.1628 27.9135C36.0067 26.9324 36.4257 25.4652 36.4257 23.5337C36.4257 19.9671 35.0271 18.1889 32.2284 18.1889C30.859 18.1889 29.7874 18.6371 29.0195 19.5423C28.1829 20.5306 27.7566 21.9906 27.7566 23.9147C27.7566 25.8083 28.1289 27.1923 28.8749 28.0814C29.5596 28.8727 30.586 29.2756 31.9627 29.2756C32.4722 29.2756 32.9437 29.2143 33.37 29.0858L35.9483 30.591L36.6549 29.3749L36.6447 29.3734ZM30.2356 26.9543C29.7947 26.255 29.5815 25.1294 29.5815 23.5775C29.5815 20.8635 30.4035 19.5101 32.0532 19.5101C32.9131 19.5101 33.5511 19.8372 33.954 20.4839C34.3876 21.1905 34.6081 22.3015 34.6081 23.8374C34.6081 26.5674 33.7788 27.9441 32.1364 27.9441C31.2692 27.9441 30.6385 27.6171 30.2283 26.9704L30.2356 26.9543ZM27.0106 26.1338C27.0106 27.0463 26.6763 27.7996 25.9989 28.3763C25.3302 28.9617 24.4397 29.2581 23.3068 29.2581C22.2498 29.2581 21.238 28.9238 20.2424 28.2537L20.7066 27.3266C21.5578 27.7529 22.3257 27.966 23.0264 27.966C23.6732 27.966 24.1827 27.8215 24.5477 27.5397C24.9127 27.2507 25.1331 26.8477 25.1331 26.3382C25.1331 25.6988 24.6849 25.1513 23.8703 24.6958C23.117 24.2783 21.6045 23.4184 21.6045 23.4184C20.7825 22.8183 20.3796 22.1789 20.3796 21.1219C20.3796 20.2474 20.6833 19.5481 21.2921 19.0152C21.9081 18.4678 22.6907 18.202 23.6644 18.202C24.6332 18.1936 25.583 18.4714 26.3945 19.0006L25.977 19.9277C25.3246 19.6404 24.621 19.488 23.9082 19.4795C23.3535 19.4795 22.9272 19.6167 22.6308 19.8824C22.3344 20.1481 22.152 20.4825 22.152 20.9015C22.152 21.5409 22.6089 22.0884 23.444 22.5585C24.2119 22.976 25.7551 23.8593 25.7551 23.8593C26.5989 24.452 27.0179 25.0914 27.0179 26.1324L27.0106 26.1338ZM45.2685 14.7362C44.2261 14.7128 43.4202 14.8194 42.7442 15.1085C42.5545 15.1844 42.242 15.1844 42.2114 15.4282C42.3179 15.5348 42.3325 15.7026 42.4245 15.8457C42.5836 16.1041 42.8508 16.4545 43.1019 16.637C43.3764 16.8502 43.6494 17.0633 43.9312 17.2458C44.4407 17.5582 45.0115 17.7407 45.5123 18.0517C45.794 18.2342 46.0831 18.4692 46.3634 18.6605C46.5079 18.7597 46.5985 18.9349 46.7809 18.9948V18.9568C46.689 18.843 46.6671 18.6751 46.5751 18.5393C46.4452 18.4094 46.3167 18.2955 46.1868 18.167C45.806 17.6615 45.3495 17.2178 44.8334 16.8516C44.4159 16.5698 43.5034 16.1742 43.3355 15.6953L43.3122 15.6647C43.5939 15.6413 43.9282 15.5348 44.2012 15.4588C44.6421 15.345 45.0524 15.3669 45.5093 15.253C45.719 15.1986 45.9269 15.1377 46.1327 15.0705V14.9566C45.8977 14.7216 45.7225 14.4019 45.4787 14.1814C44.8069 13.5935 44.0898 13.0595 43.3341 12.5842C42.9238 12.3185 42.407 12.1506 41.9734 11.9302C41.8216 11.8543 41.5559 11.8163 41.4712 11.6864C41.2361 11.3973 41.0989 11.025 40.931 10.682C40.5491 9.93973 40.1941 9.18397 39.8667 8.41615C39.6317 7.90663 39.4944 7.40442 39.2054 6.93286C37.8666 4.71961 36.4067 3.38232 34.1715 2.06692C33.6927 1.79245 33.1146 1.67858 32.5058 1.53405C32.1787 1.51945 31.859 1.49609 31.532 1.48149C31.3188 1.38951 31.1145 1.14717 30.932 1.02453C30.1874 0.552974 28.2705 -0.458756 27.7303 0.879998C27.38 1.73114 28.2472 2.56038 28.5523 2.98667C28.7727 3.29034 29.0545 3.62612 29.2136 3.96045C29.3056 4.1882 29.3275 4.4247 29.4195 4.65975C29.6253 5.23058 29.8224 5.86857 30.0969 6.40145C30.2414 6.67591 30.3932 6.96352 30.5757 7.20733C30.6823 7.35186 30.8648 7.41318 30.9028 7.64823C30.7203 7.91393 30.7057 8.30227 30.6064 8.622C30.1348 10.0965 30.3173 11.9141 30.9787 13.0018C31.1918 13.3288 31.6853 14.0442 32.3481 13.7697C32.9335 13.5347 32.805 12.7959 32.9715 12.1419C33.0094 11.9828 32.9861 11.8835 33.0635 11.7769V11.8076C33.2532 12.1725 33.4357 12.5229 33.6036 12.8879C33.9993 13.5274 34.7059 14.1887 35.2913 14.6296C35.6037 14.8646 35.8461 15.2691 36.2344 15.4121V15.3742H36.2038C36.1205 15.2603 36.014 15.2063 35.9074 15.1158C35.6608 14.8715 35.432 14.61 35.2227 14.3332C34.6825 13.6033 34.1964 12.7974 33.7701 11.9682C33.5647 11.5584 33.3772 11.14 33.208 10.7141C33.1321 10.5622 33.1321 10.3257 33.0021 10.2498C32.805 10.5316 32.516 10.7739 32.3787 11.1316C32.1276 11.6864 32.1043 12.3784 32.0065 13.0938C31.9612 13.1084 31.9831 13.0938 31.9612 13.1244C31.5437 13.0178 31.3991 12.5915 31.2458 12.2266C30.8502 11.2995 30.7889 9.81622 31.1247 8.75193C31.2166 8.47746 31.6035 7.61903 31.4517 7.36062C31.3685 7.10951 31.1101 6.96498 30.9728 6.76789C30.7976 6.52408 30.6225 6.21312 30.5013 5.93865C30.1889 5.20868 30.037 4.4028 29.6954 3.67284C29.5436 3.33852 29.2691 2.98813 29.0487 2.67717C28.7975 2.32679 28.5245 2.07714 28.3333 1.66544C28.2647 1.52091 28.1742 1.28586 28.2807 1.13257C28.3041 1.02599 28.3566 0.988033 28.4632 0.957374C28.6311 0.812841 29.1173 0.995333 29.2852 1.07855C29.764 1.26834 30.167 1.45083 30.5699 1.7253C30.7524 1.85523 30.9495 2.09758 31.186 2.16619H31.4605C31.878 2.25817 32.3423 2.18955 32.7306 2.31073C33.4226 2.53118 34.046 2.8509 34.6081 3.19982C36.327 4.30323 37.7248 5.84005 38.6608 7.65553C38.82 7.95189 38.8886 8.22636 39.0331 8.53732C39.2988 9.18407 39.6419 9.82936 39.9149 10.4454C40.1879 11.0615 40.4478 11.6849 40.842 12.1944C41.039 12.4689 41.8157 12.612 42.172 12.7492C42.4304 12.8704 42.8333 12.977 43.061 13.1142C43.5092 13.3887 43.9501 13.6996 44.3691 14.0033C44.5823 14.1478 45.229 14.4748 45.267 14.7333L45.2685 14.7362Z" fill="white"/>
</svg>
