<svg width="33" height="30" viewBox="0 0 33 30" fill="none" xmlns="http://www.w3.org/2000/svg">
<path d="M5.3645 24.3566C3.40558 22.0221 3.71092 18.5321 6.04546 16.5731L11.5064 11.9909L9.32982 9.39693L3.86889 13.9792C0.100846 17.141 -0.391207 22.7652 2.77056 26.5332C5.93232 30.3012 11.5565 30.7933 15.3246 27.6315L20.7855 23.0493L18.6089 20.4553L13.148 25.0376C10.8134 26.9965 7.32342 26.6912 5.3645 24.3566ZM12.1075 21.025L23.0294 11.8605L20.7382 9.13003L9.81639 18.2946L12.1075 21.025ZM17.5212 2.52354L12.0603 7.1058L14.2369 9.69974L19.6978 5.11748C22.0323 3.15856 25.5224 3.4639 27.4813 5.79845C29.4402 8.13299 29.1349 11.623 26.8003 13.5819L21.3394 18.1642L23.5159 20.7581L28.9769 16.1759C32.7449 13.0141 33.237 7.38991 30.0752 3.62187C26.9134 -0.146172 21.2893 -0.638225 17.5212 2.52354Z" fill="white"/>
</svg>
