<svg width="51" height="28" viewBox="0 0 51 28" fill="none" xmlns="http://www.w3.org/2000/svg">
<path d="M25.4229 2.10497C38.9679 2.10497 49.3835 7.81062 49.3835 14.0773C49.3835 20.3441 38.96 26.0497 25.4229 26.0497C11.878 26.0497 1.46239 20.3441 1.46239 14.0773C1.46239 7.81062 11.8859 2.10497 25.4229 2.10497ZM25.4229 0.777344C11.4591 0.777344 0.134766 6.72797 0.134766 14.0773C0.134766 21.4267 11.4591 27.3773 25.4229 27.3773C39.3868 27.3773 50.7111 21.4267 50.7111 14.0773C50.7111 6.72797 39.3868 0.777344 25.4229 0.777344ZM17.3781 13.0105C16.7538 16.211 14.549 15.8791 11.8385 15.8791L12.9211 10.2999C15.9241 10.2999 17.9629 9.97592 17.3781 13.0105ZM7.83185 21.5295H10.7321L11.4196 17.9891C14.6676 17.9891 16.6827 18.2262 18.5477 16.4797C20.6103 14.5831 21.1477 11.2087 19.6778 9.51757C18.9112 8.63248 17.6784 8.19784 16.0031 8.19784H10.416L7.83185 21.5295ZM22.5069 4.6496H25.3913L24.7038 8.18994C27.1931 8.18994 29.5007 8.00818 30.6149 9.03551C31.7845 10.1103 31.2234 11.4853 29.959 17.9733H27.0351C28.2521 11.6987 28.4812 11.1771 28.0387 10.703C27.6119 10.2446 26.6399 10.3394 24.2929 10.3394L22.8072 17.9733H19.9228L22.5069 4.6496ZM40.0427 13.0105C39.4105 16.2585 37.1424 15.8791 34.503 15.8791L35.5856 10.2999C38.6044 10.2999 40.6275 9.97592 40.0427 13.0105ZM30.4964 21.5295H33.4045L34.092 17.9891C37.506 17.9891 39.3947 18.1867 41.2201 16.4797C43.2827 14.5831 43.8201 11.2087 42.3502 9.51757C41.5837 8.63248 40.3509 8.19784 38.6755 8.19784H33.0884L30.4964 21.5295Z" fill="white"/>
</svg>
